G04 ================== begin FILE IDENTIFICATION RECORD ==================*
G04 Layout Name:  D:/project/RS232/02-PCB/USB2RS232_PCB_V1.0_20241208.brd*
G04 Film Name:    01_TOP*
G04 File Format:  Gerber RS274X*
G04 File Origin:  Cadence Allegro 17.4-S028*
G04 Origin Date:  Sun Dec  8 03:09:42 2024*
G04 *
G04 Layer:  BOARD GEOMETRY/OUTLINE*
G04 Layer:  ETCH/TOP*
G04 Layer:  PIN/TOP*
G04 Layer:  VIA CLASS/TOP*
G04 *
G04 Offset:    (0.000 0.000)*
G04 Mirror:    No*
G04 Mode:      Positive*
G04 Rotation:  0*
G04 FullContactRelief:  No*
G04 UndefLineWidth:     6.000*
G04 ================== end FILE IDENTIFICATION RECORD ====================*
%FSLAX25Y25*MOIN*%
%IR0*IPPOS*OFA0.00000B0.00000*MIA0B0*SFA1.00000B1.00000*%
%ADD10C,.137795*%
%ADD18R,.06X.02*%
%ADD14R,.02X.025*%
%ADD15R,.025X.02*%
%ADD16R,.035X.032*%
%ADD17C,.022*%
%ADD19R,.011811X.061024*%
%ADD11C,.059055*%
%ADD12C,.055906*%
%ADD20C,.059059*%
%ADD13O,.07874X.025591*%
%ADD21C,.006*%
%ADD22C,.02*%
%ADD23C,.012*%
%ADD24C,.03*%
%ADD25C,.015*%
%ADD26C,.07506*%
%ADD27C,.06591*%
%ADD28C,.069064*%
G75*
%LPD*%
G75*
G36*
G01X-116624Y661488D02*
G03Y676268I0J7390D01*
G03X-123242Y672167I0J-7390D01*
G02X-124000Y672345I-358J178D01*
G01Y712655D01*
G02X-123242Y712833I400J0D01*
G03X-116624Y708732I6618J3289D01*
G03Y723512I0J7390D01*
G03X-123242Y719411I0J-7390D01*
G02X-124000Y719589I-358J178D01*
G01Y726000D01*
X2500D01*
Y660000D01*
X-124000D01*
Y665411D01*
G02X-123242Y665589I400J0D01*
G03X-116624Y661488I6618J3289D01*
G37*
%LPC*%
G75*
G36*
G01X-33900Y722800D02*
X-30000D01*
G02X-28727Y722273I0J-1800D01*
G01X-27727Y721273D01*
G02X-27200Y720000I-1273J-1273D01*
G01Y718519D01*
G02X-26500Y717250I-800J-1269D01*
G01Y714750D01*
G02X-26701Y714000I-1500J0D01*
G02X-26500Y713250I-1299J-750D01*
G01Y710750D01*
G02X-27088Y709559I-1500J0D01*
G02X-26743Y708500I-1456J-1059D01*
G01Y708462D01*
G02X-26453Y707575I-1210J-887D01*
G01Y701472D01*
G02X-27953Y699972I-1500J0D01*
G01X-47047D01*
G02X-48547Y701472I0J1500D01*
G01Y707575D01*
G02X-47047Y709075I1500J0D01*
G01X-45409D01*
G03X-45112Y709743I0J400D01*
G02X-45500Y710750I1112J1007D01*
G01Y713250D01*
G02X-44000Y714750I1500J0D01*
G01X-41500D01*
Y717250D01*
G02X-40000Y718750I1500J0D01*
G01X-38000D01*
G02X-37369Y718611I0J-1500D01*
G03X-36800Y718974I168J363D01*
G01Y719900D01*
G02X-36273Y721173I1800J0D01*
G01X-35173Y722273D01*
G02X-33900Y722800I1273J-1273D01*
G37*
G36*
G01X-91968Y692780D02*
X-86654D01*
G02Y687220I0J-2780D01*
G01X-91968D01*
G02Y692780I0J2780D01*
G37*
G36*
G01X-91968Y707780D02*
X-86654D01*
G02X-84936Y702814I0J-2780D01*
G03Y702186I247J-314D01*
G02X-86654Y697220I-1718J-2186D01*
G01X-91968D01*
G02X-94742Y699813I0J2780D01*
G01X-94754Y700000D01*
X-97300D01*
Y694420D01*
G02X-97827Y693147I-1800J0D01*
G01X-100447Y690527D01*
G02X-101720Y690000I-1273J1273D01*
G01X-104170D01*
G03X-104561Y689512I0J-400D01*
G02X-104454Y688563I-4190J-948D01*
G02X-113046Y688563I-4296J0D01*
G02X-111091Y692165I4296J0D01*
G03Y692835I-218J335D01*
G02X-113046Y696437I2341J3602D01*
G02X-104454I4295J0D01*
G02X-104561Y695488I-4296J0D01*
G03X-104170Y695000I390J-88D01*
G01X-103046D01*
X-102300Y695746D01*
Y701500D01*
G02X-101773Y702773I1800J0D01*
G01X-100073Y704473D01*
G02X-98800Y705000I1273J-1273D01*
G01X-94754D01*
X-94742Y705187D01*
G02X-91968Y707780I2773J-187D01*
G37*
G36*
G01X-26443Y677815D02*
G02X-26382Y677750I-1057J-1064D01*
G01X-25432D01*
X-24091Y679091D01*
G02X-22603Y679748I1591J-1591D01*
G02X-21250Y680600I1353J-648D01*
G01X-11750D01*
G02X-10550Y680000I0J-1500D01*
G01X-7185D01*
G02X-3500Y681953I3685J-2500D01*
G02Y673047I0J-4453D01*
G02X-7185Y675000I0J4453D01*
G01X-10550D01*
G02X-11750Y674400I-1200J900D01*
G01X-16500D01*
Y667500D01*
G02X-17378Y665378I-3000J0D01*
G01X-20378Y662378D01*
G02X-22500Y661500I-2121J2122D01*
G01X-43000D01*
G02X-45122Y662378I0J3000D01*
G01X-48622Y665878D01*
G02X-49500Y668000I2122J2121D01*
G01Y673757D01*
X-49743Y674000D01*
X-51500D01*
G02X-52744Y674270I0J3000D01*
G02X-53283Y674470I244J1480D01*
G01X-53331Y674500D01*
X-53669D01*
X-53717Y674470D01*
G02X-54500Y674250I-783J1280D01*
G01X-56500D01*
G02X-57963Y675420I0J1500D01*
G01X-57976Y675476D01*
X-60000Y677500D01*
X-68500D01*
Y677740D01*
X-76000D01*
G02X-76844Y678000I0J1500D01*
G01X-78879D01*
X-79378Y677500D01*
X-79669D01*
X-79717Y677471D01*
G02X-80500Y677250I-783J1279D01*
G01X-82500D01*
G02X-83283Y677470I0J1500D01*
G01X-83331Y677500D01*
X-83669D01*
X-83717Y677470D01*
G02X-84500Y677250I-783J1280D01*
G01X-86500D01*
G02X-86921Y677310I0J1500D01*
G01X-87035Y677343D01*
X-89750Y674629D01*
Y674432D01*
X-89068Y673750D01*
X-87079D01*
G02X-86250Y674000I829J-1250D01*
G01X-79750D01*
G02X-79228Y673907I0J-1500D01*
G01X-79108Y673862D01*
X-78725Y674245D01*
G02X-77240Y674860I1485J-1485D01*
G01X-77022D01*
X-76967Y674907D01*
G02X-76000Y675260I967J-1147D01*
G01X-61000D01*
G02X-59500Y673760I0J-1500D01*
G01Y671760D01*
G02X-61000Y670260I-1500J0D01*
G01X-76000D01*
G02X-76515Y670351I0J1500D01*
G01X-76635Y670395D01*
X-77015Y670015D01*
G02X-78500Y669400I-1485J1485D01*
G01X-78728D01*
X-78783Y669353D01*
G02X-79750Y669000I-967J1147D01*
G01X-86250D01*
G02X-87079Y669250I0J1500D01*
G01X-90000D01*
G02X-91591Y669909I0J2250D01*
G01X-93591Y671909D01*
G02X-94250Y673500I1591J1591D01*
G01Y675129D01*
X-94521Y675400D01*
X-99750D01*
G02X-100257Y675488I0J1500D01*
G01X-100290Y675500D01*
X-105908D01*
G02X-108750Y674425I-2842J3221D01*
G02Y683016I0J4296D01*
G02X-105475Y681500I0J-4295D01*
G01X-100290D01*
X-100257Y681512D01*
G02X-99750Y681600I507J-1412D01*
G01X-95500D01*
Y682121D01*
X-92621Y685000D01*
X-69879D01*
X-68500Y683622D01*
X-67121Y685000D01*
X-58750D01*
Y687750D01*
X-61400D01*
G02X-63032Y687220I-1632J2250D01*
G01X-68346D01*
G02X-69928Y687714I0J2780D01*
G01X-69980Y687750D01*
X-70876D01*
G02X-72467Y688409I0J2250D01*
G01X-73591Y689533D01*
G02X-74250Y691124I1591J1591D01*
G01Y703526D01*
G02X-73591Y705117I2250J0D01*
G01X-72117Y706591D01*
G02X-70526Y707250I1591J-1591D01*
G01X-69980D01*
X-69928Y707286D01*
G02X-68346Y707780I1582J-2286D01*
G01X-63032D01*
G02X-61400Y707250I0J-2780D01*
G01X-54500D01*
G02X-52909Y706591I0J-2250D01*
G01X-50909Y704591D01*
G02X-50250Y703000I-1591J-1591D01*
G01Y701618D01*
G02X-49750Y700500I-1000J-1118D01*
G01Y698500D01*
G02X-50191Y697437I-1500J0D01*
G01X-50250Y697379D01*
Y697121D01*
X-50191Y697063D01*
G02X-49750Y696000I-1059J-1063D01*
G01Y694000D01*
G02X-51250Y692500I-1500J0D01*
G01X-53700D01*
G03X-54027Y691868I0J-400D01*
G02X-53750Y691000I-1223J-868D01*
G01Y689000D01*
G02X-54250Y687882I-1500J0D01*
G01Y685000D01*
X-49879D01*
X-49230Y684352D01*
G03X-48547Y684635I283J283D01*
G01Y685528D01*
G02X-47047Y687028I1500J0D01*
G01X-43139D01*
Y689839D01*
G02X-41339Y691639I1800J0D01*
G01X-41338D01*
G02X-41045Y691615I0J-1800D01*
G03X-40580Y692009I65J395D01*
G01Y692500D01*
G02X-36979I1800J0D01*
G01Y691532D01*
G03X-36296Y691249I400J0D01*
G01X-33773Y693773D01*
G02X-32500Y694300I1273J-1273D01*
G01X-23245D01*
X-22750Y694796D01*
Y697100D01*
G02X-21250Y698600I1500J0D01*
G01X-11750D01*
G02X-10741Y698210I0J-1500D01*
G01X-10600Y698082D01*
X-9591Y699091D01*
G02X-8000Y699750I1591J-1591D01*
G01X-7343D01*
G02X-3500Y701953I3843J-2250D01*
G02Y693047I0J-4453D01*
G02X-6975Y694715I0J4453D01*
G03X-7570Y694748I-312J-250D01*
G01X-8409Y693909D01*
G02X-10000Y693250I-1591J1591D01*
G01X-10398D01*
G02X-10736Y692795I-1352J650D01*
G03Y692205I270J-295D01*
G02X-10397Y691748I-1014J-1105D01*
G02X-8909Y691091I-103J-2248D01*
G01X-7568Y689750D01*
X-7344D01*
X-7286Y689845D01*
G02X-3500Y691953I3786J-2345D01*
G02Y683047I0J-4453D01*
G02X-7343Y685250I0J4453D01*
G01X-8500D01*
G02X-10091Y685909I0J2250D01*
G01X-10863Y686680D01*
X-10996Y686603D01*
G02X-11750Y686400I-754J1297D01*
G01X-21250D01*
G02X-22708Y687547I0J1500D01*
G01X-22745Y687700D01*
X-31754D01*
X-31861Y687593D01*
Y686415D01*
G02X-31571Y685528I-1210J-887D01*
G01Y679425D01*
G02X-31685Y678852I-1500J0D01*
G01X-31700Y678815D01*
Y678019D01*
G02X-31176Y677456I-800J-1269D01*
G03X-30824I176J94D01*
G02X-30644Y677721I1323J-706D01*
G01Y682477D01*
G02X-30635Y682667I2100J0D01*
G01X-30634Y682676D01*
Y685528D01*
G02X-29134Y687028I1500J0D01*
G01X-27953D01*
G02X-26453Y685528I0J-1500D01*
G01Y682676D01*
X-26452Y682667D01*
G02X-26443Y682477I-2092J-190D01*
G01Y677815D01*
G37*
G54D26*
X-116624Y683642D03*
Y701358D03*
G54D27*
X-108750Y706280D03*
G54D28*
X-3500Y707500D03*
%LPD*%
G75*
G36*
G01X-92000Y683500D02*
X-70500D01*
X-70000Y683000D01*
Y679500D01*
X-79500D01*
X-80000Y679000D01*
X-81000D01*
G03X-81030Y679000I1J-2500D01*
G01X-87500D01*
X-90000Y676500D01*
X-93500D01*
X-94000Y677000D01*
Y680500D01*
X-94000Y681500D01*
X-92000Y683500D01*
G37*
G36*
G01X-76000Y677500D02*
X-60000D01*
X-57976Y675476D01*
X-57963Y675420D01*
G03X-56830Y674287I1463J330D01*
G01X-56774Y674274D01*
X-56500Y674000D01*
X-51534D01*
G03X-51500Y674000I35J3000D01*
G01X-50000D01*
Y670000D01*
X-50500Y669500D01*
X-59500D01*
X-60000Y670000D01*
Y670642D01*
G03X-59500Y671760I-1000J1118D01*
G01Y673760D01*
G03X-61000Y675260I-1500J0D01*
G01X-61260D01*
X-61500Y675500D01*
X-76000D01*
Y677500D01*
G37*
G36*
G01X-66500Y683500D02*
X-50500D01*
X-50000Y683000D01*
Y676000D01*
X-56378D01*
X-59379Y679000D01*
X-67000D01*
Y683000D01*
X-66500Y683500D01*
G37*
G36*
G01X-22500Y673387D02*
Y668743D01*
X-23743Y667500D01*
X-34104D01*
G02X-34488Y668009I0J400D01*
G03X-34424Y668377I-1732J491D01*
G02X-34025Y668750I399J-27D01*
G01X-32500D01*
G03X-31000Y670250I0J1500D01*
G01Y672700D01*
G02X-30368Y673027I400J0D01*
G03X-29500Y672750I868J1223D01*
G01X-27500D01*
G03X-26382Y673250I0J1500D01*
G01X-24500D01*
G03X-23142Y673706I0J2250D01*
G02X-22500Y673387I242J-319D01*
G37*
G54D10*
X-116624Y668878D03*
Y716122D03*
G54D20*
X-3500Y687500D03*
Y677500D03*
Y707500D03*
Y697500D03*
G54D11*
X-116624Y683642D03*
Y701358D03*
G54D21*
G01X-89311Y700000D02*
X-92000D01*
X-93800Y701800D01*
X-98220D01*
X-99100Y700920D01*
Y694420D01*
X-101720Y691800D01*
X-105513D01*
X-108750Y688563D01*
G01Y696437D02*
X-105513Y693200D01*
X-102300D01*
X-100500Y695000D01*
Y701500D01*
X-98800Y703200D01*
X-93800D01*
X-92000Y705000D01*
X-89311D01*
G01X-65689Y695000D02*
X-59500D01*
G01D02*
X-56500D01*
G01X-65689Y700000D02*
X-59500D01*
G01D02*
X-57000D01*
X-56500Y699500D01*
G01X-36220Y682476D02*
Y677220D01*
G01Y668500D02*
X-39220Y671500D01*
X-41500D01*
G01X-19500Y695500D02*
X-22500Y692500D01*
X-32500D01*
X-36220Y688780D01*
Y682476D01*
G01X-41339D02*
Y675661D01*
X-41500Y675500D01*
G01X-41339Y682476D02*
Y689839D01*
G01X-38780Y682476D02*
Y673780D01*
X-36500Y671500D01*
X-33500D01*
G01X-38780Y682476D02*
Y692500D01*
G01X-33661Y704524D02*
Y708661D01*
X-35000Y710000D01*
Y719900D01*
X-33900Y721000D01*
X-30000D01*
X-29000Y720000D01*
Y716000D01*
G01X-36220Y704524D02*
Y715220D01*
X-37000Y716000D01*
X-39000D01*
G01X-38780Y704524D02*
Y711780D01*
X-39000Y712000D01*
G01X-41339Y704524D02*
Y710339D01*
X-43000Y712000D01*
G01X-33500Y675500D02*
Y682315D01*
X-33661Y682476D01*
G01X-19500Y689500D02*
X-32500D01*
X-33661Y688339D01*
Y682476D01*
G01X-29000Y712000D02*
Y708957D01*
X-28543Y708500D01*
Y704524D01*
G01X-31102D02*
Y710102D01*
X-33000Y712000D01*
G01X-125500Y727500D02*
X4000D01*
Y658500D01*
X-125500D01*
Y727500D01*
G54D12*
X-108750Y678720D03*
Y688563D03*
Y696437D03*
Y706280D03*
G54D22*
G01X-73000Y676500D02*
X-78500D01*
G01X-85500Y676000D02*
X-81500D01*
G01X-78500Y676500D02*
X-81000D01*
X-81500Y676000D01*
G01X-13500Y677500D02*
X-3500D01*
G54D13*
X-89311Y690000D03*
Y695000D03*
Y700000D03*
Y705000D03*
X-65689Y690000D03*
Y695000D03*
Y700000D03*
Y705000D03*
G54D23*
G01X-73000Y672760D02*
X-77240D01*
X-78500Y671500D01*
X-81000D01*
G01X-31102Y682476D02*
Y686898D01*
G01X-28500Y671500D02*
Y668500D01*
G01Y671500D02*
X-29902D01*
G01D02*
X-31102Y672700D01*
Y682476D01*
G01X-28543D02*
Y675543D01*
X-28500Y675500D01*
G54D14*
X-81500Y676000D03*
Y680000D03*
X-85500Y676000D03*
Y680000D03*
X-51500Y673000D03*
Y677000D03*
X-55500Y673000D03*
Y677000D03*
X-41500Y671500D03*
Y675500D03*
X-39000Y712000D03*
X-43000D03*
X-39000Y716000D03*
X-43000D03*
X-28500Y671500D03*
Y675500D03*
X-33500D03*
Y671500D03*
X-29000Y712000D03*
X-33000D03*
X-29000Y716000D03*
X-33000D03*
G54D24*
G01X-98000Y678500D02*
X-108530D01*
X-108750Y678720D01*
G01X-19500Y677500D02*
Y667500D01*
X-22500Y664500D01*
X-43000D01*
X-46500Y668000D01*
Y675000D01*
X-48500Y677000D01*
X-51500D01*
G54D15*
X-85000Y671500D03*
X-81000D03*
X-56500Y690000D03*
Y695000D03*
Y699500D03*
X-52500Y690000D03*
Y695000D03*
Y699500D03*
G54D25*
G01X-116624Y661288D02*
Y668878D01*
G01D02*
Y676468D01*
G01Y668878D02*
X-109034D01*
G01X-116624Y708532D02*
Y716122D01*
G01X-108750Y702784D02*
Y706280D01*
G01D02*
Y709775D01*
G01X-112246Y706280D02*
X-108750D01*
G01D02*
X-105254D01*
G01X-116624Y716122D02*
Y723712D01*
G01Y716122D02*
X-109034D01*
G01X-92000Y677500D02*
Y673500D01*
X-90000Y671500D01*
X-85000D01*
G01X-89311Y695000D02*
X-94500D01*
G01X-89311D02*
X-84122D01*
G01X-56500Y690000D02*
X-65689D01*
G01D02*
X-70876D01*
X-72000Y691124D01*
Y703526D01*
X-70526Y705000D01*
X-65689D01*
G01X-56500Y690000D02*
Y682500D01*
G01X-65689Y705000D02*
X-54500D01*
G01X-52500Y690000D02*
Y687000D01*
G01Y695000D02*
Y699500D01*
G01X-54500Y705000D02*
X-52500Y703000D01*
Y699500D01*
G01X-43000Y716000D02*
Y719000D01*
G01X-19500Y677500D02*
X-22500D01*
X-24500Y675500D01*
X-28500D01*
G01X-3500Y687500D02*
X-8500D01*
X-10500Y689500D01*
X-13500D01*
G01Y695500D02*
X-10000D01*
X-8000Y697500D01*
X-3500D01*
G01X-33000Y716000D02*
Y719000D01*
G01X-3500Y703847D02*
Y707500D01*
G01D02*
Y711153D01*
G01X-7153Y707500D02*
X-3500D01*
G01D02*
X153D01*
G54D16*
X-98000Y678500D03*
X-92000D03*
X-19500Y689500D03*
X-13500D03*
X-19500Y677500D03*
X-13500D03*
X-19500Y695500D03*
X-13500D03*
G54D17*
X-78500Y676500D03*
X-94500Y695000D03*
X-84122D03*
X-60500Y676500D03*
X-66000D03*
X-59500Y695000D03*
Y700000D03*
X-36220Y668500D03*
X-52500Y687000D03*
X-36220Y677220D03*
X-41339Y689839D03*
X-54500Y705000D03*
X-38780Y692500D03*
X-43000Y719000D03*
X-28500Y668500D03*
X-31102Y686898D03*
X-33000Y719000D03*
G54D18*
X-73000Y680240D03*
Y676500D03*
Y672760D03*
X-64000D03*
Y680240D03*
G54D19*
X-36220Y682476D03*
X-38780D03*
X-41339D03*
X-43898D03*
X-46457D03*
Y704524D03*
X-43898D03*
X-41339D03*
X-38780D03*
X-36220D03*
X-28543Y682476D03*
X-31102D03*
X-33661D03*
Y704524D03*
X-31102D03*
X-28543D03*
M02*
