G04 ================== begin FILE IDENTIFICATION RECORD ==================*
G04 Layout Name:  D:/project/RS232/02-PCB/USB2RS232_PCB_V1.0_20241208.brd*
G04 Film Name:    02_BOTTOM*
G04 File Format:  Gerber RS274X*
G04 File Origin:  Cadence Allegro 17.4-S028*
G04 Origin Date:  Sun Dec  8 03:09:42 2024*
G04 *
G04 Layer:  BOARD GEOMETRY/OUTLINE*
G04 Layer:  ETCH/BOTTOM*
G04 Layer:  PIN/BOTTOM*
G04 Layer:  VIA CLASS/BOTTOM*
G04 *
G04 Offset:    (0.000 0.000)*
G04 Mirror:    No*
G04 Mode:      Positive*
G04 Rotation:  0*
G04 FullContactRelief:  No*
G04 UndefLineWidth:     6.000*
G04 ================== end FILE IDENTIFICATION RECORD ====================*
%FSLAX25Y25*MOIN*%
%IR0*IPPOS*OFA0.00000B0.00000*MIA0B0*SFA1.00000B1.00000*%
%ADD10C,.137795*%
%ADD13C,.022*%
%ADD11C,.059055*%
%ADD12C,.055906*%
%ADD14C,.059059*%
%ADD15C,.006*%
%ADD16C,.015*%
%ADD17O,.036004X.123209*%
%ADD19C,.07506*%
%ADD21C,.06591*%
%ADD18C,.08591*%
%ADD22C,.069064*%
%ADD20C,.089064*%
G75*
%LPD*%
G75*
G36*
G01X-124000Y726000D02*
X2500D01*
Y660000D01*
X-124000D01*
Y665411D01*
G02X-123242Y665589I400J0D01*
G03X-116624Y661488I6618J3289D01*
G03Y676268I0J7390D01*
G03X-123242Y672167I0J-7390D01*
G02X-124000Y672345I-358J178D01*
G01Y712655D01*
G02X-123242Y712833I400J0D01*
G03X-116624Y708732I6618J3289D01*
G03Y723512I0J7390D01*
G03X-123242Y719411I0J-7390D01*
G02X-124000Y719589I-358J178D01*
G01Y726000D01*
G37*
%LPC*%
G75*
G36*
G01X-54500Y707250D02*
X-47932D01*
X-34591Y720591D01*
G02X-33000Y721250I1591J-1591D01*
G02X-30750Y719000I0J-2250D01*
G02X-31409Y717409I-2250J0D01*
G01X-45409Y703409D01*
G02X-47000Y702750I-1591J1591D01*
G01X-54500D01*
G02Y707250I0J2250D01*
G37*
G36*
G01X-111091Y692165D02*
G03Y692835I-218J335D01*
G02X-113046Y696437I2341J3602D01*
G02X-104454I4295J0D01*
G02X-106409Y692835I-4296J0D01*
G03Y692165I218J-335D01*
G02X-104454Y688563I-2341J-3602D01*
G02X-113046I-4296J0D01*
G02X-111091Y692165I4296J0D01*
G37*
G36*
G01X-59500Y698200D02*
G02Y701800I0J1800D01*
G01X-46280D01*
G02X-45007Y701273I0J-1800D01*
G01X-37507Y693773D01*
G02X-36979Y692500I-1273J-1273D01*
G02X-38780Y690700I-1800J0D01*
G02X-39120Y690732I0J1800D01*
G03X-39586Y690248I-76J-393D01*
G02X-39538Y689839I-1753J-410D01*
G02X-41339Y688038I-1800J0D01*
G02X-42612Y688566I0J1800D01*
G01X-47246Y693200D01*
X-59500D01*
G02Y696800I0J1800D01*
G01X-46591D01*
G03X-46308Y697483I0J400D01*
G01X-47025Y698200D01*
X-59500D01*
G37*
G54D17*
X-36220Y672860D03*
G54D19*
X-116624Y683642D03*
Y701358D03*
G54D21*
X-108750Y706280D03*
G54D18*
Y678720D03*
G54D22*
X-3500Y707500D03*
G54D20*
Y687500D03*
Y677500D03*
Y697500D03*
%LPD*%
G75*
G54D10*
X-116624Y668878D03*
Y716122D03*
G54D11*
Y683642D03*
Y701358D03*
G54D12*
X-108750Y678720D03*
Y688563D03*
Y696437D03*
Y706280D03*
G54D13*
X-78500Y676500D03*
X-94500Y695000D03*
X-84122D03*
X-60500Y676500D03*
X-66000D03*
X-59500Y695000D03*
Y700000D03*
X-36220Y668500D03*
X-52500Y687000D03*
X-36220Y677220D03*
X-41339Y689839D03*
X-54500Y705000D03*
X-38780Y692500D03*
X-43000Y719000D03*
X-28500Y668500D03*
X-31102Y686898D03*
X-33000Y719000D03*
G54D14*
X-3500Y687500D03*
Y677500D03*
Y707500D03*
Y697500D03*
G54D15*
G01X-41339Y689839D02*
X-46500Y695000D01*
X-59500D01*
G01X-38780Y692500D02*
X-46280Y700000D01*
X-59500D01*
G01X-36220Y677220D02*
Y668500D01*
G01X-125500Y727500D02*
X4000D01*
Y658500D01*
X-125500D01*
Y727500D01*
G54D16*
G01X-116624Y661288D02*
Y668878D01*
G01D02*
Y676468D01*
G01Y668878D02*
X-109034D01*
G01X-116624Y708532D02*
Y716122D01*
G01X-108750Y702784D02*
Y706280D01*
G01D02*
Y709775D01*
G01X-112246Y706280D02*
X-108750D01*
G01D02*
X-105254D01*
G01X-116624Y716122D02*
Y723712D01*
G01Y716122D02*
X-109034D01*
G01X-54500Y705000D02*
X-47000D01*
X-33000Y719000D01*
G01X-3500Y703847D02*
Y707500D01*
G01D02*
Y711153D01*
G01X-7153Y707500D02*
X-3500D01*
G01D02*
X153D01*
M02*
