G04 ================== begin FILE IDENTIFICATION RECORD ==================*
G04 Layout Name:  D:/project/RS232/02-PCB/USB2RS232_PCB_V1.0_20241208.brd*
G04 Film Name:    04_SILK_TOP*
G04 File Format:  Gerber RS274X*
G04 File Origin:  Cadence Allegro 17.4-S028*
G04 Origin Date:  Sun Dec  8 03:09:42 2024*
G04 *
G04 Layer:  BOARD GEOMETRY/OUTLINE*
G04 Layer:  PACKAGE GEOMETRY/SILKSCREEN_TOP*
G04 Layer:  BOARD GEOMETRY/SILKSCREEN_TOP*
G04 *
G04 Offset:    (0.000 0.000)*
G04 Mirror:    No*
G04 Mode:      Positive*
G04 Rotation:  0*
G04 FullContactRelief:  No*
G04 UndefLineWidth:     6.000*
G04 ================== end FILE IDENTIFICATION RECORD ====================*
%FSLAX25Y25*MOIN*%
%IR0*IPPOS*OFA0.00000B0.00000*MIA0B0*SFA1.00000B1.00000*%
%ADD10C,.004*%
%ADD11C,.005*%
%ADD12C,.006*%
%ADD13C,.007874*%
%ADD14C,.01*%
%ADD15C,.013*%
G75*
%LPD*%
G75*
G36*
G01X-78100Y680300D02*
X-79500Y681700D01*
Y678900D01*
X-78100Y680300D01*
G37*
G36*
G01X-88460Y709311D02*
G03I-1245J0D01*
G37*
G36*
G01X-24902Y704130D02*
G03I-1181J0D01*
G37*
G54D10*
G01X-17167Y710000D02*
Y712500D01*
X-16333D01*
X-16067Y712375D01*
X-15900Y712208D01*
X-15833Y711875D01*
X-15900Y711542D01*
X-16100Y711333D01*
X-16333Y711208D01*
X-17167D01*
G01X-16333D02*
X-15833Y710000D01*
G01X-14700D02*
X-13300Y712500D01*
G01X-14700D02*
X-13300Y710000D01*
G01X-12233D02*
Y712500D01*
X-11567D01*
X-11300Y712375D01*
X-11100Y712208D01*
X-10933Y711958D01*
X-10800Y711667D01*
X-10767Y711250D01*
X-10800Y710833D01*
X-10933Y710542D01*
X-11100Y710292D01*
X-11300Y710125D01*
X-11567Y710000D01*
X-12233D01*
G01X-17233Y706500D02*
X-17033Y706208D01*
X-16767Y706042D01*
X-16467Y706000D01*
X-16200Y706042D01*
X-15933Y706250D01*
X-15767Y706500D01*
X-15733Y706750D01*
X-15800Y707042D01*
X-16033Y707250D01*
X-16267Y707333D01*
X-16567D01*
G01X-16267D02*
X-16067Y707458D01*
X-15900Y707667D01*
X-15833Y707917D01*
X-15900Y708167D01*
X-16067Y708375D01*
X-16367Y708500D01*
X-16667Y708458D01*
X-16967Y708292D01*
G01X-14833Y708500D02*
X-14000Y706000D01*
X-13167Y708500D01*
G01X-12233Y706500D02*
X-12033Y706208D01*
X-11767Y706042D01*
X-11467Y706000D01*
X-11200Y706042D01*
X-10933Y706250D01*
X-10767Y706500D01*
X-10733Y706750D01*
X-10800Y707042D01*
X-11033Y707250D01*
X-11267Y707333D01*
X-11567D01*
G01X-11267D02*
X-11067Y707458D01*
X-10900Y707667D01*
X-10833Y707917D01*
X-10900Y708167D01*
X-11067Y708375D01*
X-11367Y708500D01*
X-11667Y708458D01*
X-11967Y708292D01*
G01X-16300Y719250D02*
X-15633D01*
Y718500D01*
X-15833Y718250D01*
X-16067Y718083D01*
X-16400Y718000D01*
X-16733Y718083D01*
X-16967Y718250D01*
X-17167Y718500D01*
X-17300Y718792D01*
X-17367Y719125D01*
Y719417D01*
X-17300Y719667D01*
X-17167Y719958D01*
X-16967Y720208D01*
X-16767Y720375D01*
X-16500Y720500D01*
X-16267D01*
X-16000Y720417D01*
X-15800Y720250D01*
G01X-14767Y718000D02*
Y720500D01*
X-13233Y718000D01*
Y720500D01*
G01X-12233Y718000D02*
Y720500D01*
X-11567D01*
X-11300Y720375D01*
X-11100Y720208D01*
X-10933Y719958D01*
X-10800Y719667D01*
X-10767Y719250D01*
X-10800Y718833D01*
X-10933Y718542D01*
X-11100Y718292D01*
X-11300Y718125D01*
X-11567Y718000D01*
X-12233D01*
G01X-16500Y716500D02*
Y714000D01*
G01X-17267Y716500D02*
X-15733D01*
G01X-14700Y714000D02*
X-13300Y716500D01*
G01X-14700D02*
X-13300Y714000D01*
G01X-12233D02*
Y716500D01*
X-11567D01*
X-11300Y716375D01*
X-11100Y716208D01*
X-10933Y715958D01*
X-10800Y715667D01*
X-10767Y715250D01*
X-10800Y714833D01*
X-10933Y714542D01*
X-11100Y714292D01*
X-11300Y714125D01*
X-11567Y714000D01*
X-12233D01*
G54D11*
G01X-100500Y681000D02*
X-89500D01*
Y676000D01*
X-100500D01*
Y681000D01*
G01X-76000Y707000D02*
G03X-75697Y708000I-1500J1000D01*
G01X-70500D01*
Y687500D01*
X-84500D01*
Y708000D01*
X-79303D01*
G03X-76000Y707000I1803J0D01*
G01X-83000Y674000D02*
Y677000D01*
G01X-82300Y677700D02*
X-80700D01*
G01X-82300Y678300D02*
X-80700D01*
G01X-83000Y679000D02*
Y682000D01*
X-80000D01*
Y679000D01*
G01Y677000D02*
Y674000D01*
X-83000D01*
G01X-87000D02*
Y677000D01*
G01X-86300Y677700D02*
X-84700D01*
G01X-86300Y678300D02*
X-84700D01*
G01X-87000Y679000D02*
Y682000D01*
X-84000D01*
Y679000D01*
G01Y677000D02*
Y674000D01*
X-87000D01*
G01X-86940Y673080D02*
X-79060D01*
G01D02*
Y669920D01*
X-86940D01*
Y673080D01*
G01X-95000Y677500D02*
Y676000D01*
G01Y680900D02*
Y679600D01*
X-95600D01*
Y677600D01*
X-94400D01*
Y679600D01*
X-95000D01*
G01X-55500Y688500D02*
X-58500D01*
Y691500D01*
X-55500D01*
G01X-57000Y671000D02*
Y674000D01*
G01Y676000D02*
Y679000D01*
X-54000D01*
Y676000D01*
G01Y674000D02*
Y671000D01*
X-57000D01*
G01X-50560Y693420D02*
X-58440D01*
G01D02*
Y696580D01*
X-50560D01*
Y693420D01*
G01Y697920D02*
X-58440D01*
G01D02*
Y701080D01*
X-50560D01*
Y697920D01*
G01X-50500Y688500D02*
X-53500D01*
G01X-54200Y689200D02*
Y690800D01*
G01X-54800Y689200D02*
Y690800D01*
G01X-53500Y691500D02*
X-50500D01*
Y688500D01*
G01X-53000Y671000D02*
Y674000D01*
G01X-52300Y674700D02*
X-50700D01*
G01X-52300Y675300D02*
X-50700D01*
G01X-53000Y676000D02*
Y679000D01*
X-50000D01*
Y676000D01*
G01Y674000D02*
Y671000D01*
X-53000D01*
G01X-56300Y674700D02*
X-54700D01*
G01X-56300Y675300D02*
X-54700D01*
G01X-31920Y669560D02*
X-35080D01*
Y677440D01*
X-31920D01*
G01X-43080Y669560D02*
Y677440D01*
G01D02*
X-39920D01*
Y669560D01*
X-43080D01*
G01X-40500Y710000D02*
Y713000D01*
G01X-37500D02*
Y710000D01*
X-40500D01*
G01X-41500Y713000D02*
Y710000D01*
X-44500D01*
Y713000D01*
G01X-39800Y713700D02*
X-38200D01*
G01X-39800Y714300D02*
X-38200D01*
G01X-40500Y715000D02*
Y718000D01*
X-37500D01*
Y715000D01*
G01X-41500Y718000D02*
Y715000D01*
G01X-42200Y714300D02*
X-43800D01*
G01X-42200Y713700D02*
X-43800D01*
G01X-44500Y715000D02*
Y718000D01*
X-41500D01*
G01X-30000Y669500D02*
Y672500D01*
G01X-29300Y673200D02*
X-27700D01*
G01X-29300Y673800D02*
X-27700D01*
G01X-30000Y674500D02*
Y677500D01*
X-27000D01*
Y674500D01*
G01Y672500D02*
Y669500D01*
X-30000D01*
G01X-31920Y677440D02*
Y669560D01*
G01X-22000Y692000D02*
X-11000D01*
Y687000D01*
X-22000D01*
Y692000D01*
G01X-16500Y688500D02*
Y687000D01*
G01Y691900D02*
Y690600D01*
X-17100D01*
Y688600D01*
X-15900D01*
Y690600D01*
X-16500D01*
G01X-22000Y680000D02*
X-11000D01*
Y675000D01*
X-22000D01*
Y680000D01*
G01X-16500Y676500D02*
Y675000D01*
G01Y679900D02*
Y678600D01*
X-17100D01*
Y676600D01*
X-15900D01*
Y678600D01*
X-16500D01*
G01X-27500Y713000D02*
Y710000D01*
X-30500D01*
Y713000D01*
G01X-31500D02*
Y710000D01*
X-34500D01*
Y713000D01*
G01X-22000Y698000D02*
X-11000D01*
Y693000D01*
X-22000D01*
Y698000D01*
G01X-16500Y694500D02*
Y693000D01*
G01Y697900D02*
Y696600D01*
X-17100D01*
Y694600D01*
X-15900D01*
Y696600D01*
X-16500D01*
G01X-27500Y718000D02*
Y715000D01*
G01X-28200Y714300D02*
X-29800D01*
G01X-28200Y713700D02*
X-29800D01*
G01X-30500Y715000D02*
Y718000D01*
X-27500D01*
G01X-31500D02*
Y715000D01*
G01X-32200Y714300D02*
X-33800D01*
G01X-32200Y713700D02*
X-33800D01*
G01X-34500Y715000D02*
Y718000D01*
X-31500D01*
G01X-8500Y672500D02*
Y712500D01*
X1500D01*
Y672500D01*
X-8500D01*
G54D12*
G01X-77500Y677500D02*
Y669500D01*
G01Y683500D02*
Y677500D01*
G01Y683500D02*
Y669500D01*
G01X-59500Y683500D02*
X-77500D01*
G01X-59500Y669500D02*
Y683500D01*
G01X-77500Y669500D02*
X-59500D01*
G01X-125500Y727500D02*
X4000D01*
Y658500D01*
X-125500D01*
Y727500D01*
G54D13*
G01X-124250Y716000D02*
X-187250D01*
Y669000D01*
X-124250D01*
G01X-141750Y673250D02*
Y679750D01*
X-153750D01*
Y673250D01*
X-141750D01*
G01Y711750D02*
Y705250D01*
X-153750D01*
Y711750D01*
X-141750D01*
G01X-108750Y716000D02*
X-104750D01*
Y669000D01*
X-108750D01*
G54D14*
G01X-27264Y696256D02*
Y700193D01*
X-47736D01*
Y686807D01*
X-27264D01*
Y690744D01*
G01D02*
G02Y696256I0J2756D01*
G54D15*
G01X-77300Y679300D02*
Y683300D01*
X-71500D01*
M02*
