G04 ================== begin FILE IDENTIFICATION RECORD ==================*
G04 Layout Name:  D:/project/RS232/02-PCB/USB2RS232_PCB_V1.0_20241208.brd*
G04 Film Name:    05_SILK_BOTTOM*
G04 File Format:  Gerber RS274X*
G04 File Origin:  Cadence Allegro 17.4-S028*
G04 Origin Date:  Sun Dec  8 03:09:42 2024*
G04 *
G04 Layer:  BOARD GEOMETRY/OUTLINE*
G04 Layer:  PACKAGE GEOMETRY/SILKSCREEN_BOTTOM*
G04 Layer:  BOARD GEOMETRY/SILKSCREEN_BOTTOM*
G04 *
G04 Offset:    (0.000 0.000)*
G04 Mirror:    No*
G04 Mode:      Positive*
G04 Rotation:  0*
G04 FullContactRelief:  No*
G04 UndefLineWidth:     6.000*
G04 ================== end FILE IDENTIFICATION RECORD ====================*
%FSLAX25Y25*MOIN*%
%IR0*IPPOS*OFA0.00000B0.00000*MIA0B0*SFA1.00000B1.00000*%
%ADD10C,.004*%
%ADD11C,.006*%
G75*
%LPD*%
G75*
G54D10*
G01X-8767Y677000D02*
X-8967Y676708D01*
X-9233Y676542D01*
X-9533Y676500D01*
X-9800Y676542D01*
X-10067Y676750D01*
X-10233Y677000D01*
X-10267Y677250D01*
X-10200Y677542D01*
X-9967Y677750D01*
X-9733Y677833D01*
X-9433D01*
G01X-9733D02*
X-9933Y677958D01*
X-10100Y678167D01*
X-10167Y678417D01*
X-10100Y678667D01*
X-9933Y678875D01*
X-9633Y679000D01*
X-9333Y678958D01*
X-9033Y678792D01*
G01X-11167Y679000D02*
X-12000Y676500D01*
X-12833Y679000D01*
G01X-13767Y677000D02*
X-13967Y676708D01*
X-14233Y676542D01*
X-14533Y676500D01*
X-14800Y676542D01*
X-15067Y676750D01*
X-15233Y677000D01*
X-15267Y677250D01*
X-15200Y677542D01*
X-14967Y677750D01*
X-14733Y677833D01*
X-14433D01*
G01X-14733D02*
X-14933Y677958D01*
X-15100Y678167D01*
X-15167Y678417D01*
X-15100Y678667D01*
X-14933Y678875D01*
X-14633Y679000D01*
X-14333Y678958D01*
X-14033Y678792D01*
G01X-9333Y686500D02*
Y689000D01*
X-10167D01*
X-10433Y688875D01*
X-10600Y688708D01*
X-10667Y688375D01*
X-10600Y688042D01*
X-10400Y687833D01*
X-10167Y687708D01*
X-9333D01*
G01X-10167D02*
X-10667Y686500D01*
G01X-11800D02*
X-13200Y689000D01*
G01X-11800D02*
X-13200Y686500D01*
G01X-14267D02*
Y689000D01*
X-14933D01*
X-15200Y688875D01*
X-15400Y688708D01*
X-15567Y688458D01*
X-15700Y688167D01*
X-15733Y687750D01*
X-15700Y687333D01*
X-15567Y687042D01*
X-15400Y686792D01*
X-15200Y686625D01*
X-14933Y686500D01*
X-14267D01*
G01X-9700Y707250D02*
X-10367D01*
Y706500D01*
X-10167Y706250D01*
X-9933Y706083D01*
X-9600Y706000D01*
X-9267Y706083D01*
X-9033Y706250D01*
X-8833Y706500D01*
X-8700Y706792D01*
X-8633Y707125D01*
Y707417D01*
X-8700Y707667D01*
X-8833Y707958D01*
X-9033Y708208D01*
X-9233Y708375D01*
X-9500Y708500D01*
X-9733D01*
X-10000Y708417D01*
X-10200Y708250D01*
G01X-11233Y706000D02*
Y708500D01*
X-12767Y706000D01*
Y708500D01*
G01X-13767Y706000D02*
Y708500D01*
X-14433D01*
X-14700Y708375D01*
X-14900Y708208D01*
X-15067Y707958D01*
X-15200Y707667D01*
X-15233Y707250D01*
X-15200Y706833D01*
X-15067Y706542D01*
X-14900Y706292D01*
X-14700Y706125D01*
X-14433Y706000D01*
X-13767D01*
G01X-9500Y699000D02*
Y696500D01*
G01X-8733Y699000D02*
X-10267D01*
G01X-11300Y696500D02*
X-12700Y699000D01*
G01X-11300D02*
X-12700Y696500D01*
G01X-13767D02*
Y699000D01*
X-14433D01*
X-14700Y698875D01*
X-14900Y698708D01*
X-15067Y698458D01*
X-15200Y698167D01*
X-15233Y697750D01*
X-15200Y697333D01*
X-15067Y697042D01*
X-14900Y696792D01*
X-14700Y696625D01*
X-14433Y696500D01*
X-13767D01*
G54D11*
G01X-125500Y727500D02*
X4000D01*
Y658500D01*
X-125500D01*
Y727500D01*
M02*
